<?xml version="1.0" ?><svg id="Layer_1" style="enable-background:new 0 0 48 48;" version="1.1" viewBox="0 0 48 48" xml:space="preserve" xmlns="http://www.w3.org/2000/svg" xmlns:xlink="http://www.w3.org/1999/xlink"><style type="text/css">
	.st0{fill:#FF4676;}
	.st1{fill:#0F1C70;}
	.st2{fill:#FFE92E;}
	.st3{fill:#17D5D1;}
	.st4{fill:#FFFFFF;}
	.st5{fill:#EA2461;}
	.st6{fill:#F2F2F2;}
</style><g><g><g><g><g><g><g><circle class="st1" cx="24" cy="24" r="24"/></g></g></g></g></g></g><g><g><g><path class="st0" d="M38,27.6c0,2.4-1,4.6-2.6,6.2v5.6l-4.1-3.3c-0.7,0.2-1.4,0.3-2.2,0.3c-4.9,0-8.9-4-8.9-8.9      c0-4.9,4-8.9,8.9-8.9C34,18.8,38,22.7,38,27.6z"/></g></g><g><g><g><g><g><g><g><path class="st4" d="M34.6,20.1c0,7.1-5.7,12.8-12.8,12.8c-1.1,0-2.1-0.1-3.1-0.4l-6,4.7v-8.2c-2.3-2.3-3.7-5.5-3.7-9           C9,13,14.7,7.3,21.8,7.3C28.8,7.3,34.6,13,34.6,20.1z"/></g></g></g></g></g></g><g><path class="st2" d="M21.2,24.2v-3.7c-1.1-0.3-2-0.8-2.5-1.5c-0.5-0.7-0.8-1.5-0.8-2.4c0-1,0.3-1.8,0.9-2.4      c0.6-0.7,1.4-1,2.4-1.1v-0.9h1.3v0.9c0.9,0.1,1.7,0.4,2.2,0.9s0.9,1.2,1.1,2.1l-2.2,0.3c-0.1-0.7-0.5-1.2-1.1-1.4v3.4      c1.4,0.4,2.4,0.9,2.9,1.5s0.8,1.4,0.8,2.3c0,1.1-0.3,1.9-1,2.7c-0.6,0.7-1.5,1.2-2.7,1.3v1.6h-1.3v-1.6c-1-0.1-1.8-0.5-2.5-1.1      s-1-1.5-1.2-2.7l2.3-0.2c0.1,0.5,0.3,0.9,0.5,1.2C20.6,23.8,20.8,24.1,21.2,24.2z M21.2,15c-0.3,0.1-0.6,0.3-0.8,0.6      c-0.2,0.3-0.3,0.6-0.3,0.9c0,0.3,0.1,0.6,0.3,0.9c0.2,0.3,0.5,0.5,0.8,0.6V15z M22.4,24.3c0.4-0.1,0.8-0.3,1.1-0.6      s0.4-0.7,0.4-1.1c0-0.4-0.1-0.7-0.3-1s-0.6-0.5-1.1-0.7V24.3z"/></g></g></g></g></svg>