<?xml version="1.0" ?><svg id="Layer_1" style="enable-background:new 0 0 48 48;" version="1.1" viewBox="0 0 48 48" xml:space="preserve" xmlns="http://www.w3.org/2000/svg" xmlns:xlink="http://www.w3.org/1999/xlink"><style type="text/css">
	.st0{fill:#FF4676;}
	.st1{fill:#0F1C70;}
	.st2{fill:#FFE92E;}
	.st3{fill:#17D5D1;}
	.st4{fill:#FFFFFF;}
	.st5{fill:#EA2461;}
	.st6{fill:#F2F2F2;}
</style><g><g><g><g><g><g><g><g><g><circle class="st0" cx="24" cy="24" r="24"/></g></g></g></g></g></g></g></g><g><g><polygon class="st4" points="28.8,40.1 35.6,33.2 35.6,7.9 12.4,7.9 12.4,40.1    "/></g><g><polygon class="st1" points="28.8,40.1 35.6,33.2 28.8,33.2    "/></g><g><g><path class="st2" d="M23.5,12.2c-3.2,0-5.9,2.6-5.9,5.9c0,0.5,0.1,0.9,0.2,1.4l5.7-1.4V12.2z"/><path class="st0" d="M24.5,11.2v5.9h5.9C30.3,13.8,27.7,11.2,24.5,11.2z"/><path class="st1" d="M29.4,18c0,2.8-1.9,5.1-4.5,5.7c-0.4,0.1-0.9,0.2-1.4,0.2c-2.8,0-5.1-1.9-5.7-4.5l5.7-1.4H29.4z"/></g><g><rect class="st1" height="0.9" width="18" x="15" y="27.1"/></g><g><rect class="st1" height="0.9" width="18" x="15" y="30"/></g><g><rect class="st1" height="0.9" width="11.2" x="15" y="33"/></g><g><rect class="st1" height="0.9" width="11.2" x="15" y="35.9"/></g></g></g></g></svg>